<?xml version="1.0" standalone="no"?>
<!DOCTYPE svg PUBLIC "-//W3C//DTD SVG 20010904//EN"
 "http://www.w3.org/TR/2001/REC-SVG-20010904/DTD/svg10.dtd">
<svg version="1.0" xmlns="http://www.w3.org/2000/svg"
 width="512.000000pt" height="512.000000pt" viewBox="0 0 512.000000 512.000000"
 preserveAspectRatio="xMidYMid meet">
<metadata>
Created by potrace 1.14, written by Peter Selinger 2001-2017
</metadata>
<g transform="translate(0.000000,512.000000) scale(0.100000,-0.100000)"
fill="#000000" stroke="none">
<path d="M2360 4900 c-108 -11 -166 -20 -242 -36 -37 -7 -82 -16 -100 -19 -17
-3 -35 -8 -40 -11 -4 -3 -17 -7 -29 -9 -96 -19 -327 -109 -479 -188 -157 -82
-338 -205 -458 -310 -292 -257 -535 -607 -666 -958 -32 -89 -98 -323 -110
-394 -50 -294 -51 -572 -4 -840 17 -103 19 -108 34 -170 26 -102 87 -288 121
-365 51 -114 171 -337 158 -294 -60 215 -75 322 -75 519 0 66 2 138 5 160 2
22 7 65 10 95 29 273 164 662 332 954 50 89 151 246 158 246 2 0 -14 -44 -36
-97 -38 -93 -91 -291 -103 -383 -3 -25 -9 -65 -12 -90 -8 -62 -8 -295 0 -350
4 -25 9 -63 12 -85 3 -22 10 -60 16 -85 5 -25 11 -53 13 -62 24 -116 100 -315
165 -433 42 -76 57 -95 40 -50 -5 14 -12 38 -15 53 -3 15 -7 32 -9 37 -1 6 -6
33 -10 60 -4 28 -10 61 -12 75 -6 30 -6 247 0 275 2 11 7 47 10 80 28 232 155
554 321 810 30 47 65 88 65 76 0 -5 -4 -12 -9 -15 -14 -9 -69 -165 -90 -256
-28 -120 -33 -161 -35 -280 -3 -174 26 -336 90 -500 39 -100 100 -213 88 -165
-32 138 -41 290 -24 385 4 25 10 63 14 85 21 156 137 417 264 595 81 115 278
316 387 397 194 143 368 228 580 282 198 50 431 45 571 -14 70 -29 31 4 -64
53 -96 50 -272 115 -342 126 -19 3 -46 8 -60 12 -14 3 -97 8 -185 10 -203 4
-336 -19 -515 -91 -88 -35 -84 -29 29 42 459 291 1012 383 1393 232 27 -10 48
-17 48 -14 0 6 -151 94 -211 123 -237 115 -505 176 -769 176 -77 0 -260 -13
-270 -19 -3 -1 -26 -6 -51 -9 -66 -9 -242 -60 -328 -95 -41 -17 -76 -29 -78
-28 -4 4 180 117 270 166 305 166 680 281 997 307 71 5 261 5 305 -1 22 -2 58
-7 80 -9 90 -11 213 -39 301 -71 52 -18 92 -30 89 -25 -6 10 -130 83 -231 137
-159 84 -422 176 -604 212 -86 17 -95 19 -142 26 -23 3 -56 8 -73 11 -59 9
-411 12 -485 4z"/>
<path d="M4540 3867 c0 -4 7 -22 16 -39 13 -26 43 -110 50 -143 1 -5 7 -30 14
-55 14 -51 17 -68 26 -125 3 -22 9 -59 14 -83 4 -24 6 -125 5 -225 -3 -174
-25 -355 -57 -472 -65 -237 -136 -424 -231 -608 -74 -142 -177 -311 -184 -303
-3 3 -1 11 4 18 21 26 96 265 109 348 2 14 6 34 9 45 2 11 6 40 10 65 3 25 7
63 10 85 6 48 6 268 1 310 -3 17 -8 55 -11 85 -4 30 -9 67 -11 81 -13 101 -90
328 -154 459 -33 67 -36 73 -84 153 -33 55 -43 57 -21 4 19 -45 53 -169 60
-222 4 -22 8 -96 10 -165 8 -276 -65 -570 -212 -852 -43 -83 -155 -269 -160
-265 -1 2 11 36 28 76 34 81 76 236 87 321 4 30 7 118 6 195 -1 125 -6 169
-39 315 -16 74 -92 250 -146 340 -35 58 -38 55 -14 -11 67 -186 61 -417 -17
-659 -188 -584 -757 -1074 -1330 -1148 -95 -12 -258 -6 -330 13 -34 8 -63 14
-65 12 -9 -9 144 -80 240 -111 188 -62 367 -82 557 -61 135 14 327 69 408 116
17 10 32 15 32 11 0 -8 -143 -102 -235 -154 -191 -109 -426 -192 -643 -228
-114 -19 -311 -23 -402 -10 -99 15 -133 22 -157 31 -32 12 -50 12 -37 0 48
-47 360 -172 489 -196 17 -3 66 -13 110 -22 54 -11 141 -16 265 -17 194 -1
264 4 383 30 40 8 79 17 88 19 57 12 233 76 292 107 9 5 17 6 17 4 0 -15 -258
-171 -395 -239 -80 -39 -110 -53 -190 -88 -110 -47 -297 -107 -400 -130 -22
-4 -51 -11 -65 -14 -156 -35 -465 -51 -630 -33 -81 9 -230 41 -289 63 -84 29
-23 -7 164 -100 248 -122 526 -204 795 -232 147 -16 507 -8 611 12 13 3 62 12
109 21 264 50 585 178 806 322 51 32 154 106 170 120 11 9 42 35 69 57 177
140 410 412 529 615 103 176 229 484 260 634 3 11 12 55 21 96 9 41 19 93 21
115 3 22 7 45 9 52 8 25 19 202 19 323 0 381 -80 722 -250 1063 -59 118 -163
293 -164 274z"/>
</g>
</svg>
